<?xml version="1.0" encoding="UTF-8" standalone="no"?>
<svg xmlns:dc="http://purl.org/dc/elements/1.1/" xmlns:cc="http://creativecommons.org/ns#" xmlns:rdf="http://www.w3.org/1999/02/22-rdf-syntax-ns#" xmlns:svg="http://www.w3.org/2000/svg" xmlns="http://www.w3.org/2000/svg" xmlns:xlink="http://www.w3.org/1999/xlink" version="1.1" width="45" height="45" id="svg548">
  <metadata id="metadata57">
    <rdf:RDF>
      <cc:Work rdf:about="">
        <dc:format>image/svg+xml</dc:format>
        <dc:type rdf:resource="http://purl.org/dc/dcmitype/StillImage"/>
        <dc:title/>
      </cc:Work>
    </rdf:RDF>
  </metadata>
  <defs id="defs630">
    <linearGradient x1="22.669001" y1="9.3192997" x2="23.184" y2="11.242" id="XMLID_11_" gradientUnits="userSpaceOnUse">
      <stop id="stop607" style="stop-color:#ffffff;stop-opacity:1" offset="0"/>
      <stop id="stop608" style="stop-color:#cecedb;stop-opacity:1" offset="1"/>
    </linearGradient>
    <linearGradient x1="22.367001" y1="7.8495998" x2="24.236" y2="14.824" id="linearGradient2914" gradientUnits="userSpaceOnUse" gradientTransform="translate(-1.5997614,-1.6)">
      <stop id="stop614" style="stop-color:#cecedb;stop-opacity:1" offset="0"/>
      <stop id="stop615" style="stop-color:#cbcbd7;stop-opacity:1" offset="0.0054"/>
      <stop id="stop616" style="stop-color:#a5a5ad;stop-opacity:1" offset="0.0705"/>
      <stop id="stop617" style="stop-color:#87878c;stop-opacity:1" offset="0.1338"/>
      <stop id="stop618" style="stop-color:#727274;stop-opacity:1" offset="0.19410001"/>
      <stop id="stop619" style="stop-color:#656566;stop-opacity:1" offset="0.2502"/>
      <stop id="stop620" style="stop-color:#616161;stop-opacity:1" offset="0.29769999"/>
      <stop id="stop621" style="stop-color:#000000;stop-opacity:1" offset="1"/>
    </linearGradient>
    <linearGradient x1="311.22" y1="17.458" x2="311.22" y2="23.226" id="linearGradient2919" gradientUnits="userSpaceOnUse" gradientTransform="matrix(1,0,0.2679,1,-294.30976,-1.6)">
      <stop id="stop596" style="stop-color:#cecedb;stop-opacity:1" offset="0"/>
      <stop id="stop597" style="stop-color:#828282;stop-opacity:1" offset="0.29769999"/>
      <stop id="stop598" style="stop-color:#000000;stop-opacity:1" offset="1"/>
    </linearGradient>
    <linearGradient x1="24.16" y1="18.868" x2="24.16" y2="20.534" id="linearGradient2922" gradientUnits="userSpaceOnUse" gradientTransform="translate(-1.5997614,-1.6)">
      <stop id="stop589" style="stop-color:#ffffff;stop-opacity:1" offset="0"/>
      <stop id="stop590" style="stop-color:#e9e9ef;stop-opacity:1" offset="1"/>
    </linearGradient>
    <linearGradient x1="24.947001" y1="21.048" x2="24.947001" y2="23.1" id="linearGradient2926" gradientUnits="userSpaceOnUse" gradientTransform="translate(-1.5997614,-1.6)">
      <stop id="stop576" style="stop-color:#616161;stop-opacity:1" offset="0"/>
      <stop id="stop577" style="stop-color:#88888a;stop-opacity:1" offset="0.1569"/>
      <stop id="stop578" style="stop-color:#ababae;stop-opacity:1" offset="0.32600001"/>
      <stop id="stop579" style="stop-color:#c6c6ca;stop-opacity:1" offset="0.49630001"/>
      <stop id="stop580" style="stop-color:#d9d9df;stop-opacity:1" offset="0.66570002"/>
      <stop id="stop581" style="stop-color:#e5e5eb;stop-opacity:1" offset="0.83399999"/>
      <stop id="stop582" style="stop-color:#e9e9ef;stop-opacity:1" offset="1"/>
    </linearGradient>
    <linearGradient x1="24.948" y1="49.257" x2="24.948" y2="21.948" id="linearGradient2930" gradientUnits="userSpaceOnUse" gradientTransform="translate(-1.5997614,-1.6)">
      <stop id="stop557" style="stop-color:#ffffff;stop-opacity:1" offset="0.0056"/>
      <stop id="stop558" style="stop-color:#f8f8fa;stop-opacity:1" offset="0.045"/>
      <stop id="stop559" style="stop-color:#e4e4ec;stop-opacity:1" offset="0.1027"/>
      <stop id="stop560" style="stop-color:#c4c4d4;stop-opacity:1" offset="0.17129999"/>
      <stop id="stop561" style="stop-color:#bdbdcf;stop-opacity:1" offset="0.18539999"/>
      <stop id="stop562" style="stop-color:#bebed0;stop-opacity:1" offset="0.18960001"/>
      <stop id="stop563" style="stop-color:#cacad8;stop-opacity:1" offset="0.27509999"/>
      <stop id="stop564" style="stop-color:#cecedb;stop-opacity:1" offset="0.35949999"/>
      <stop id="stop565" style="stop-color:#e9e9ef;stop-opacity:1" offset="0.78649998"/>
    </linearGradient>
    <filter color-interpolation-filters="sRGB" id="filter3831">
      <feGaussianBlur id="feGaussianBlur3833" stdDeviation="0.41930778"/>
    </filter>
    <linearGradient id="linearGradient8157">
      <stop id="stop8159" style="stop-color:#000000;stop-opacity:1" offset="0"/>
      <stop id="stop8161" style="stop-color:#606060;stop-opacity:1" offset="1"/>
    </linearGradient>
    <linearGradient id="linearGradient3579">
      <stop id="stop3581" style="stop-color:#ffffff;stop-opacity:1" offset="0"/>
      <stop id="stop3583" style="stop-color:#ffffff;stop-opacity:0" offset="1"/>
    </linearGradient>
    <linearGradient x1="80.23925" y1="81.05584" x2="18.903805" y2="13.944632" id="linearGradient3303" xlink:href="#linearGradient8157" gradientUnits="userSpaceOnUse" gradientTransform="scale(0.88267,1.132926)"/>
    <linearGradient x1="-19.039936" y1="52.71389" x2="15.223759" y2="111.3392" id="linearGradient3305" xlink:href="#linearGradient3579" gradientUnits="userSpaceOnUse" gradientTransform="matrix(1.269095,-0.13167,0.08088146,0.779571,0,0)"/>
    <linearGradient x1="71.088333" y1="-6.6212053" x2="97.343185" y2="37.16391" id="linearGradient3307" xlink:href="#linearGradient3579" gradientUnits="userSpaceOnUse" gradientTransform="matrix(0.60451,-0.06271869,0.1698,1.636615,0,0)"/>
    <linearGradient x1="95.224609" y1="4.4250841" x2="156.67999" y2="20.792826" id="linearGradient3309" xlink:href="#linearGradient3579" gradientUnits="userSpaceOnUse" gradientTransform="scale(0.583097,1.71498)"/>
  </defs>
  <path d="M 42.706739,15.7335 H 8.8097386 L 41.544739,6.9615 c 0.188,-0.05 0.346,-0.171 0.443,-0.341 0.097,-0.168 0.123,-0.365 0.073,-0.554 l -1.08,-4.032 c -0.049,-0.185 -0.173,-0.347 -0.341,-0.444 -0.169,-0.097 -0.365,-0.123 -0.554,-0.072 l -0.248,0.066 0.052,0.026 c -0.271,0.035 -0.743,0.159 -1.664,0.406 l -35.9320004,9.629 c -0.188,0.05 -0.345,0.171 -0.443,0.339 -0.065,0.114 -0.098,0.239 -0.098,0.365 0,0.063 0.008,0.127 0.025,0.19 l 1.073,4.003 v 4.093 c 0,0.403 0.328,0.73 0.73,0.73 h 1.524 v 21.457 c 0,0.366 0.273,0.677 0.636,0.725 l 0.219,0.027 c 0.238,0.029 0.863,0.096 1.593,0.096 H 40.309739 c 1.351,0 2.448,-1.115 2.448,-2.484 v -19.825 c 0.378,-0.027 0.679,-0.34 0.679,-0.725 v -4.173 c 0,-0.403 -0.327,-0.73 -0.73,-0.73 z" id="path552" style="opacity:0.5;filter:url(#filter3831)"/>
  <path d="m 42.123239,15.15 h -0.256 H 8.2262386 L 40.961239,6.379 c 0.188,-0.051 0.346,-0.172 0.443,-0.341 0.097,-0.169 0.123,-0.365 0.072,-0.554 l -1.08,-4.032 c -0.049,-0.186 -0.174,-0.348 -0.341,-0.444 -0.169,-0.097 -0.365,-0.123 -0.554,-0.072 l -0.248,0.067 0.052,0.026 c -0.271,0.034 -0.743,0.159 -1.664,0.406 L 1.7112386,11.062 c -0.188,0.05 -0.345,0.171 -0.443,0.339 -0.065,0.114 -0.098,0.239 -0.098,0.365 0,0.063 0.008,0.128 0.025,0.19 l 1.073,4.002 v 4.094 c 0,0.402 0.328,0.73 0.73,0.73 h 1.524 v 21.674 c 0,0.41134 0.22768,0.63147 0.636,0.63147 l 34.5690004,-2e-4 c 1.351,0 2.448,-1.114 2.448,-2.484 v -19.826 c 0.378,-0.027 0.679,-0.339 0.679,-0.725 v -4.173 c -10e-4,-0.402 -0.329,-0.729 -0.731,-0.729 z" id="path553"/>
  <path d="M 5.5022386,42.1 H 39.726239 c 0.81,0 1.467,-0.671 1.467,-1.498 v -21.47 c 0,-0.828 -0.657,-1.499 -1.467,-1.499 H 6.9692386 c -0.81,0 -1.467,0.671 -1.467,1.499 V 42.1 z" id="path555" style="fill:#ffffff"/>
  <path d="M 5.5022386,42.1 H 39.726239 c 0.81,0 1.467,-0.671 1.467,-1.498 v -21.47 c 0,-0.828 -0.657,-1.499 -1.467,-1.499 H 6.9692386 c -0.81,0 -1.467,0.671 -1.467,1.499 V 42.1 z" id="path573" style="opacity:0.8;fill:url(#linearGradient2930)"/>
  <path d="M 39.726239,17.633 H 6.9692386 c -0.81,0 -1.467,0.671 -1.467,1.499 V 42.1 H 39.726239 c 0.81,0 1.467,-0.671 1.467,-1.498 v -21.47 c 0,-0.828 -0.657,-1.499 -1.467,-1.499 z m 0.444,22.969 c 0,0.262 -0.199,0.474 -0.443,0.474 H 6.5262386 V 19.132 c 0,-0.261 0.199,-0.475 0.443,-0.475 H 39.726239 c 0.244,0 0.443,0.213 0.443,0.475 v 21.47 h 0.001 z" id="path574" style="opacity:0.5;fill:#ffffff"/>
  <path d="m 5.5022386,22.082 c 0,0 0.657,0.016 1.467,0.016 H 39.726239 c 0.81,0 1.467,-0.123 1.467,-0.274 v -3.917 c 0,-0.15 -0.657,-0.273 -1.467,-0.273 H 6.9692386 c -0.81,0 -1.467,0.123 -1.467,0.273 v 4.175 z" id="path586" style="opacity:0.8;fill:url(#linearGradient2926)"/>
  <path d="M 41.867239,15.539 H 2.9972386 c -0.188,0 -0.341,0.153 -0.341,0.341 v 4.173 c 0,0.188 0.153,0.341 0.341,0.341 H 42.122239 c 0.189,0 0.342,-0.153 0.342,-0.341 V 15.88 c 0,-0.188 -0.152,-0.341 -0.342,-0.341 h -0.255 z" id="path587"/>
  <rect width="38.612999" height="3.661" x="3.2542388" y="16.135002" id="rect594" style="fill:url(#linearGradient2922)"/>
  <path d="m 6.1622386,19.796 h 3.662 l -1.627,-3.661 h -3.661 l 1.626,3.661 M 23.175239,16.135 h -3.66 l 1.626,3.661 h 3.661 l -1.627,-3.661 m -7.489,0 h -3.662 l 1.627,3.661 h 3.662 l -1.627,-3.661 m 22.47,0 h -3.663 l 1.628,3.661 h 3.661 l -1.626,-3.661 m -7.49,0 h -3.662 l 1.627,3.661 h 3.664 l -1.629,-3.661 z" id="path604" style="fill:url(#linearGradient2919)"/>
  <path d="m 39.603239,1.311 -0.248,0.067 h 0.001 L 1.8112386,11.438 c -0.088,0.023 -0.162,0.081 -0.208,0.159 -0.046,0.078 -0.058,0.171 -0.034,0.258 l 1.081,4.033 c 0.049,0.182 0.236,0.29 0.418,0.241 L 40.861239,6.003 c 0.182,-0.049 0.29,-0.236 0.24,-0.418 l -1.079,-4.032 c -0.023,-0.087 -0.081,-0.162 -0.159,-0.208 -0.079,-0.045 -0.172,-0.057 -0.26,-0.034 z" id="path605"/>
  <polygon points="41.111,3.555 3.814,13.548 4.761,17.085 42.06,7.091 " transform="translate(-1.5997614,-1.6)" id="polygon612" style="fill:url(#XMLID_11_)"/>
  <path d="m 5.9702386,14.733 3.538,-0.947 -1.571,-3.371 -3.537,0.948 1.57,3.37 m 16.4340004,-8.194 -3.537,0.948 1.571,3.37 3.538,-0.948 -1.572,-3.37 m -7.234,1.938 -3.537,0.948 1.572,3.37 3.536,-0.949 -1.571,-3.369 m 21.703,-5.815 -3.535,0.947 1.571,3.37 3.537,-0.947 -1.573,-3.37 m -7.234,1.939 -3.538,0.946 1.572,3.371 3.537,-0.948 -1.571,-3.369 z" id="path627" style="fill:url(#linearGradient2914)"/>
  <g transform="matrix(0.18228753,0,0,0.18228753,12.824425,21.447758)" id="g10453">
    <path d="M 69,2.3125 C 64.818046,9.0354121 63.837632,17.88811 60.846437,25.398373 56.866375,37.984332 52.886312,50.570291 48.90625,63.15625 37.906654,50.659421 14.276585,58.407662 12.906446,75.114782 9.9696307,90.804562 28.317212,105.00207 42.8125,97.8125 56.486903,90.62452 56.8611,73.186414 61.794879,60.315804 65.363253,48.491786 68.931626,36.667768 72.5,24.84375 76.159103,34.410661 81.361443,47.872458 71.683314,55.640247 65.645234,58.489746 67.397967,69.674371 74.90625,67.375 88.046615,61.916344 92.919197,43.969073 86.961304,31.514799 82.542379,22.221655 76.949778,13.347625 71.740915,4.4320634 70.978304,3.7491674 70.475192,1.4019212 69,2.3125 z" id="path9681"/>
    <path d="M 69.65817,4.1010011 67.340851,11.441835 49.794969,67.017994 C 45.860887,61.473174 39.22111,58.092783 31.98132,58.843919 21.290982,59.953052 13.516429,69.526816 14.625634,80.217842 15.734838,90.908865 25.309219,98.682662 35.999557,97.573528 44.42823,96.699045 50.9595,90.523322 52.838415,82.725282 L 72.209318,18.670635 c 1.690782,2.961566 3.679423,9.844584 5.045099,13.82933 1.629277,4.753872 2.528942,9.795977 1.853231,14.228468 -0.67571,4.432492 -2.667013,8.333776 -7.546706,11.747771 -1.302303,0.760341 -2.063388,2.186777 -1.973272,3.692098 0.09011,1.505323 1.014007,2.827565 2.397719,3.42711 1.383711,0.599544 2.989108,0.376147 4.149018,-0.587554 6.520259,-4.561787 9.904422,-10.78459 10.8604,-17.055572 0.955977,-6.270982 0.37423,-12.566381 -2.213116,-17.06508 C 79.721848,22.996745 76.581231,16.662142 73.875164,12.147822 72.627633,9.449142 71.063835,6.7832748 69.65817,4.1010011 z" id="path1291" style="fill:url(#linearGradient3303)"/>
    <path d="M 28.342805,60.415292 C 21.045761,62.770871 17.100078,68.146017 15.873992,74.643336 22.520884,103.10443 30.283543,63.263107 49.265582,68.455977 49.634465,66.46574 40.303454,56.88655 28.342805,60.415292 z" id="path2057" style="fill:url(#linearGradient3305)"/>
    <path d="M 50.705627,66.934152 C 55.507174,64.661613 65.40981,16.593917 71.681064,16.580795 69.841104,16.151322 69.50979,13.340655 69.394962,6.789618 69.066935,7.8415256 50.921241,67.1565 50.705627,66.934152 z" id="path3587" style="fill:url(#linearGradient3307)"/>
    <path d="m 71.542131,16.852147 c 0,0 22.416534,33.863274 6.518283,35.930047 3.656597,-4.292528 3.81558,-16.534181 -6.518283,-35.930047 z" id="path5873" style="fill:url(#linearGradient3309)"/>
  </g>
</svg>