<?xml version="1.0" encoding="UTF-8" standalone="no"?>
<!-- Created with Inkscape (http://www.inkscape.org/) -->
<svg id="svg2" xmlns:rdf="http://www.w3.org/1999/02/22-rdf-syntax-ns#" xmlns="http://www.w3.org/2000/svg" xmlns:osb="http://www.openswatchbook.org/uri/2009/osb" viewBox="0 0 1000 1000" version="1.1" xmlns:cc="http://creativecommons.org/ns#" xmlns:dc="http://purl.org/dc/elements/1.1/">
 <defs id="defs4"></defs>
 <metadata id="metadata7">
  <rdf:RDF>
   <cc:Work rdf:about="">
    <dc:format>image/svg+xml</dc:format>
    <dc:type rdf:resource="http://purl.org/dc/dcmitype/StillImage"/>
    <dc:title/>
   </cc:Work>
  </rdf:RDF>
 </metadata>
 <g id="layer4">
  <rect id="rect3007" style="enable-background:accumulate;color:#000000;" fill-rule="nonzero" height="1000" width="1000" y="0" x="0" fill="#FFF"/>
 </g>
 <g id="layer2">
  <path id="path3764" style="enable-background:accumulate;color:#000000;" d="m-309.56,416.74-93.246-60.349-94.53,58.317,28.58-107.33-84.675-71.882,110.91-5.9858,42.198-102.74,39.966,103.63,110.75,8.3835-86.21,70.034z" transform="matrix(0.35746408,0,0,0.355568,901.51468,596.99866)" stroke="#000" stroke-miterlimit="4" stroke-dasharray="none" stroke-width="28.04932785" fill="#FF0"/>
  <path id="path3766" style="enable-background:accumulate;color:#000000;" d="m-309.56,416.74-93.246-60.349-94.53,58.317,28.58-107.33-84.675-71.882,110.91-5.9858,42.198-102.74,39.966,103.63,110.75,8.3835-86.21,70.034z" transform="matrix(0.44708049,0,0,0.44544886,499.98483,448.17538)" stroke="#000" stroke-miterlimit="4" stroke-dasharray="none" stroke-width="22.40826416" fill="#FF0"/>
  <path id="path3768" style="enable-background:accumulate;color:#000000;" fill="#FF0" transform="matrix(0.32006518,0,0,0.31805874,922.34327,370.39806)" stroke="#000" stroke-miterlimit="4" stroke-dasharray="none" stroke-width="31.34202957" d="m-309.56,416.74-93.246-60.349-94.53,58.317,28.58-107.33-84.675-71.882,110.91-5.9858,42.198-102.74,39.966,103.63,110.75,8.3835-86.21,70.034z"/>
  <path id="path3770" style="enable-background:accumulate;color:#000000;" d="m-309.56,416.74-93.246-60.349-94.53,58.317,28.58-107.33-84.675-71.882,110.91-5.9858,42.198-102.74,39.966,103.63,110.75,8.3835-86.21,70.034z" transform="matrix(0.41991206,0,0,0.41820026,749.08206,410.72962)" stroke="#000" stroke-miterlimit="4" stroke-dasharray="none" stroke-width="23.86319923" fill="#FF0"/>
  <path id="path3772" style="enable-background:accumulate;color:#000000;" d="m-309.56,416.74-93.246-60.349-94.53,58.317,28.58-107.33-84.675-71.882,110.91-5.9858,42.198-102.74,39.966,103.63,110.75,8.3835-86.21,70.034z" transform="matrix(0.15900122,0,0,0.15651949,722.10224,303.88961)" stroke="#000" stroke-miterlimit="4" stroke-dasharray="none" stroke-width="63.38924026" fill="#000"/>
  <path id="path3774" style="enable-background:accumulate;color:#000000;" transform="matrix(0.15900122,0,0,0.15651949,766.29109,123.3466)" fill="#000" d="m-309.56,416.74-93.246-60.349-94.53,58.317,28.58-107.33-84.675-71.882,110.91-5.9858,42.198-102.74,39.966,103.63,110.75,8.3835-86.21,70.034z"/>
  <path id="path3776" style="enable-background:accumulate;color:#000000;" fill="#000" transform="matrix(0.1283783,0,0,0.12604164,860.44684,226.95085)" stroke="#000" stroke-miterlimit="4" stroke-dasharray="none" stroke-width="78.6135025" d="m-309.56,416.74-93.246-60.349-94.53,58.317,28.58-107.33-84.675-71.882,110.91-5.9858,42.198-102.74,39.966,103.63,110.75,8.3835-86.21,70.034z"/>
  <path id="path3778" style="enable-background:accumulate;color:#000000;" fill="#FF0" transform="matrix(0.5012914,0,0,0.4996531,722.22004,623.37026)" stroke="#000" stroke-miterlimit="4" stroke-dasharray="none" stroke-width="19.9811554" d="m-309.56,416.74-93.246-60.349-94.53,58.317,28.58-107.33-84.675-71.882,110.91-5.9858,42.198-102.74,39.966,103.63,110.75,8.3835-86.21,70.034z"/>
  <path id="path3780" style="enable-background:accumulate;color:#000000;" fill="#FF0" transform="matrix(0.73620532,0,0,0.73453813,499.22007,614.76411)" stroke="#000" stroke-miterlimit="4" stroke-dasharray="none" stroke-width="13.59857368" d="m-309.56,416.74-93.246-60.349-94.53,58.317,28.58-107.33-84.675-71.882,110.91-5.9858,42.198-102.74,39.966,103.63,110.75,8.3835-86.21,70.034z"/>
  <path id="path3782" style="enable-background:accumulate;color:#000000;" fill="#000" transform="matrix(0.15900122,0,0,0.15651949,154.73248,518.41748)" stroke="#000" stroke-miterlimit="4" stroke-dasharray="none" stroke-width="63.38924026" d="m-309.56,416.74-93.246-60.349-94.53,58.317,28.58-107.33-84.675-71.882,110.91-5.9858,42.198-102.74,39.966,103.63,110.75,8.3835-86.21,70.034z"/>
  <path id="path3784" style="enable-background:accumulate;color:#000000;" d="m-309.56,416.74-93.246-60.349-94.53,58.317,28.58-107.33-84.675-71.882,110.91-5.9858,42.198-102.74,39.966,103.63,110.75,8.3835-86.21,70.034z" transform="matrix(0.15900122,0,0,0.15651949,523.09941,905.13219)" stroke="#000" stroke-miterlimit="4" stroke-dasharray="none" stroke-width="63.38924026" fill="#000"/>
 </g>
 <g id="layer3" fill="#00F">
  <path id="rect3789" style="enable-background:accumulate;color:#000000;" d="m0,0,0,472.97c23.909,1.5934,48.287,2.4062,73.062,2.4062,304.37,0,551.12-124.12,551.12-277.22,0.01-77.66-63.49-147.83-165.77-198.16h-458.41z"/>
  <path id="rect3814" style="enable-background:accumulate;color:#000000;" d="m573.06,0c238.35,103.85,397.78,292.78,397.78,508.62,0,204.38-142.93,384.64-360.47,491.38h389.63v-1000h-426.94z"/>
 </g>
</svg>
